<?xml version="1.0" standalone="no"?>
<!DOCTYPE svg PUBLIC "-//W3C//DTD SVG 20010904//EN"
 "http://www.w3.org/TR/2001/REC-SVG-20010904/DTD/svg10.dtd">
<svg version="1.0" xmlns="http://www.w3.org/2000/svg"
 width="700.000000pt" height="700.000000pt" viewBox="0 0 700.000000 700.000000"
 preserveAspectRatio="xMidYMid meet">
<metadata>
Created by potrace 1.14, written by Peter Selinger 2001-2017
</metadata>
<g transform="translate(0.000000,700.000000) scale(0.100000,-0.100000)"
fill="#000000" stroke="none">
<path d="M2775 6990 c-44 -14 -102 -66 -127 -113 -21 -40 -22 -54 -22 -312 0
-256 1 -272 22 -311 32 -62 94 -109 157 -119 11 -2 61 -6 110 -10 505 -35
1047 -207 1486 -471 111 -67 292 -186 309 -204 3 -3 25 -21 50 -40 25 -19 54
-42 64 -50 203 -159 505 -481 652 -695 11 -16 36 -52 55 -80 132 -186 288
-493 387 -760 55 -146 137 -453 157 -580 3 -22 10 -67 15 -100 17 -111 19
-130 25 -210 3 -44 8 -98 11 -120 7 -59 52 -125 107 -159 l48 -30 252 -1 c139
-1 272 3 297 8 61 13 118 60 146 122 21 45 23 62 19 141 -4 91 -14 199 -20
244 -2 14 -7 48 -10 75 -5 42 -30 188 -50 300 -10 53 -56 238 -82 325 -123
427 -317 843 -565 1213 -473 708 -1167 1284 -1928 1602 -74 31 -144 60 -155
66 -73 34 -523 167 -625 184 -19 3 -51 10 -70 15 -19 5 -53 11 -75 15 -23 3
-50 7 -60 9 -50 9 -131 21 -215 31 -30 4 -66 8 -80 10 -65 10 -258 13 -285 5z"/>
<path d="M217 5665 c-95 -38 -138 -77 -183 -165 l-29 -55 -2 -1810 c-1 -1013
2 -1836 7 -1870 5 -33 12 -85 16 -115 3 -30 8 -58 10 -61 2 -3 6 -21 9 -40 6
-35 36 -142 60 -214 134 -402 424 -773 800 -1021 115 -76 373 -197 475 -224
284 -74 390 -88 620 -85 154 2 229 10 395 40 114 21 342 102 458 162 503 260
858 691 1011 1224 70 244 92 615 50 832 -2 12 -6 39 -10 61 -3 22 -17 83 -30
135 -167 648 -654 1168 -1294 1380 -52 17 -106 34 -120 37 -116 24 -162 31
-190 27 -126 -13 -224 -86 -275 -203 -19 -42 -20 -68 -20 -470 0 -416 0 -426
22 -470 37 -76 94 -123 230 -190 109 -54 134 -71 201 -139 78 -78 144 -183
164 -260 36 -134 41 -227 17 -339 -47 -230 -227 -423 -458 -493 -78 -23 -218
-31 -298 -16 -224 42 -416 202 -497 415 -14 37 -28 81 -32 97 -4 17 -8 829
-10 1805 l-2 1775 -23 60 c-32 87 -112 164 -198 192 -60 19 -86 21 -442 20
-366 0 -380 -1 -432 -22z"/>
<path d="M2777 5675 c-57 -20 -103 -60 -128 -112 -23 -46 -23 -57 -24 -307 0
-315 6 -342 101 -408 38 -26 63 -32 236 -52 187 -22 448 -105 651 -208 429
-217 763 -557 977 -993 121 -246 183 -461 216 -747 11 -99 59 -172 134 -205
28 -13 84 -16 292 -17 290 -2 324 3 381 59 51 50 70 90 71 155 0 55 -11 190
-19 213 -2 7 -6 36 -10 66 -3 29 -7 56 -9 60 -2 3 -7 24 -10 46 -4 22 -20 93
-36 157 -137 539 -417 1026 -821 1425 -177 175 -357 316 -574 450 -113 70
-412 216 -490 239 -5 2 -48 16 -95 33 -304 107 -739 183 -843 146z"/>
</g>
</svg>
